<svg width="1440" height="641" viewBox="0 0 1440 641" fill="none" xmlns="http://www.w3.org/2000/svg" xmlns:xlink="http://www.w3.org/1999/xlink">
<defs>
<filter id="blobBlurArrows" x="-50%" y="-50%" width="200%" height="200%">
<feGaussianBlur in="SourceGraphic" stdDeviation="150"/>
</filter>
<clipPath id="clip0_3418_13964">
<rect width="1440" height="641" fill="white"/>
</clipPath>
<pattern id="pattern0_3418_13964" patternUnits="userSpaceOnUse" patternTransform="matrix(200 0 0 200 0 0)" preserveAspectRatio="none" viewBox="0 0 200 200" width="1" height="1">
<g id="pattern0_3418_13964_inner">
<pattern id="pattern1_3418_13964" patternUnits="userSpaceOnUse" patternTransform="matrix(50.0207 0 0 50.0207 78.7868 78.7867)" preserveAspectRatio="none" viewBox="0 -5.24147e-05 50.0207 50.0207" width="1" height="1">
<g id="pattern1_3418_13964_inner">
<g clip-path="url(#clip1_3418_13964)">
<path fill-rule="evenodd" clip-rule="evenodd" d="M7.92886 19.7347C8.08392 19.0016 8.62318 18.3541 9.45972 18.1431L9.46017 18.143L25.8787 14.0192C25.8788 14.0192 25.8788 14.0192 25.8789 14.0192C26.6504 13.8253 27.3759 14.118 27.8425 14.5845C28.309 15.0511 28.6017 15.7766 28.4078 16.5481C28.4078 16.5482 28.4078 16.5482 28.4078 16.5483L24.2841 32.9664L24.284 32.9668L24.2839 32.9673C24.0729 33.8038 23.4254 34.3431 22.6923 34.4981C21.9685 34.6512 21.1755 34.4332 20.5923 33.85L8.57697 21.8347C7.99376 21.2515 7.77577 20.4585 7.92886 19.7347ZM9.76328 20.1226C9.74278 20.2196 9.76343 20.3695 9.9028 20.5089L21.9181 32.5242C22.0575 32.6636 22.2074 32.6842 22.3043 32.6637C22.3536 32.6533 22.3877 32.6331 22.4095 32.613C22.4287 32.5952 22.4514 32.5657 22.4658 32.5087L26.5894 16.0911C26.5972 16.0601 26.5955 15.9892 26.5166 15.9104C26.4378 15.8315 26.3669 15.8298 26.3359 15.8376L9.9183 19.9612C9.91821 19.9612 9.91812 19.9612 9.91803 19.9613C9.86116 19.9756 9.8318 19.9984 9.81404 20.0175C9.79385 20.0393 9.7737 20.0734 9.76328 20.1226Z" fill="#A5AEE9"/>
</g>
</g>
</pattern><rect width="200" height="200" fill="url(#pattern1_3418_13964)"/>
</g>
</pattern>
<clipPath id="clip1_3418_13964">
<rect width="30" height="30" fill="white" transform="translate(0 21.2132) rotate(-45)"/>
</clipPath>
</defs>
<g clip-path="url(#clip0_3418_13964)">
<mask id="mask0_3418_13964" style="mask-type:alpha" maskUnits="userSpaceOnUse" x="-114" y="-177" width="1670" height="877">
<g filter="url(#blobBlurArrows)">
<path d="M1519 338C1519 385.539 1498.32 432.612 1458.14 476.531C1417.96 520.451 1359.07 560.358 1284.83 593.973C1210.59 627.587 1122.46 654.252 1025.46 672.444C928.456 690.637 824.492 700 719.5 700C614.508 700 510.544 690.637 413.545 672.444C316.545 654.252 228.409 627.587 154.168 593.973C79.9277 560.358 21.0369 520.451 -19.1417 476.531C-59.3203 432.612 -80 385.538 -80 338L52.638 338C52.638 377.652 69.8869 416.915 103.4 453.549C136.913 490.182 186.033 523.468 247.957 551.506C309.881 579.545 383.396 601.786 464.303 616.96C545.21 632.134 631.926 639.944 719.5 639.944C807.074 639.944 893.79 632.134 974.697 616.96C1055.6 601.786 1129.12 579.545 1191.04 551.507C1252.97 523.468 1302.09 490.182 1335.6 453.549C1369.11 416.915 1386.36 377.652 1386.36 338H1519Z" fill="black" fill-opacity="0.5"/>
<path d="M1495.28 -30.1603C1449.16 -30.841 1378.37 -74.4605 1348.74 -96.1851C1328.97 -4.67661 1461.55 249.607 1522.44 165.469C1583.33 81.3304 1552.93 -29.3095 1495.28 -30.1603Z" fill="black" fill-opacity="0.4"/>
</g>
</mask>
<g mask="url(#mask0_3418_13964)">
<rect width="1440" height="641" fill="url(#pattern0_3418_13964)" fill-opacity="0.7"/>
</g>
</g>
</svg>
