<svg width="583" height="382" viewBox="0 0 583 382" fill="none" xmlns="http://www.w3.org/2000/svg">
<path d="M94 77.5V0" stroke="#A5C1E9" stroke-opacity="0.5"/>
<path d="M94 381.5L94 282.5" stroke="#A5C1E9" stroke-opacity="0.5"/>
<path d="M0 282.5L94 282.5" stroke="#A5C1E9" stroke-opacity="0.5"/>
<path d="M0 77.5L94 77.5" stroke="#A5C1E9" stroke-opacity="0.5"/>
<path d="M428 77.5L583 77.5" stroke="#A5C1E9" stroke-opacity="0.5"/>
<path d="M428 217.5L583 217.5" stroke="#A5C1E9" stroke-opacity="0.5"/>
<path d="M428 282.5L583 282.5" stroke="#A5C1E9" stroke-opacity="0.5"/>
<path d="M428 282.5L428 381.5" stroke="#A5C1E9" stroke-opacity="0.5"/>
<path d="M428 2.5L428 77.5" stroke="#A5C1E9" stroke-opacity="0.5"/>
<path d="M0 217.5L94 217.5" stroke="#A5C1E9" stroke-opacity="0.5"/>
<path d="M94.5273 218.041H263.072V281.972H94.5273V218.041Z" fill="#A5C1E9" fill-opacity="0.18"/>
<path d="M163.742 148.299H227.144V216.985H163.742V148.299Z" fill="#A5C1E9" fill-opacity="0.13"/>
<path d="M365.57 78.0283H427.387V216.984H365.57V78.0283Z" fill="#A5C1E9" fill-opacity="0.05"/>
<path d="M94 217.513L427.917 217.513M163.215 147.771H227.674M163.215 77.5V217.513M263.602 217.513V282.5M227.674 77.5V217.513M295.302 77.5L295.303 216.985M365.045 77.5V216.985M295.302 147.771L365.044 147.771M94.0015 77.5H427.919V282.5H94.0015V77.5Z" stroke="#A5C1E9"/>
<path d="M188.047 189.51V174.716H189.104" stroke="#A5C1E9" stroke-width="1.5" stroke-linecap="round" stroke-linejoin="round"/>
<path d="M195.441 189.51V174.716H196.498" stroke="#A5C1E9" stroke-width="1.5" stroke-linecap="round" stroke-linejoin="round"/>
<path d="M192.273 174.716V189.51" stroke="#A5C1E9" stroke-width="1.5" stroke-linecap="round" stroke-linejoin="round"/>
<path d="M199.668 174.716V189.51" stroke="#A5C1E9" stroke-width="1.5" stroke-linecap="round" stroke-linejoin="round"/>
<path d="M202.84 174.716V189.51" stroke="#A5C1E9" stroke-width="1.5" stroke-linecap="round" stroke-linejoin="round"/>
<path d="M189.104 174.716V189.51H188.047" stroke="#A5C1E9" stroke-width="1.5" stroke-linecap="round" stroke-linejoin="round"/>
<path d="M196.498 174.716V189.51H195.441" stroke="#A5C1E9" stroke-width="1.5" stroke-linecap="round" stroke-linejoin="round"/>
<path d="M178.01 257.037V260.287M182.633 244.877C181.577 243.821 179.718 243.087 178.01 243.041L182.633 244.877ZM173.387 254.894C174.38 256.218 176.227 256.973 178.01 257.037L173.387 254.894ZM178.01 243.041C175.977 242.986 174.157 243.906 174.157 246.418C174.157 251.041 182.633 248.73 182.633 253.353C182.633 255.989 180.377 257.122 178.01 257.037V243.041ZM178.01 243.041V240.254V243.041Z" stroke="#A5C1E9" stroke-width="1.5" stroke-linecap="round" stroke-linejoin="round"/>
<path d="M388.82 155.696V154.639C388.82 150.554 392.132 147.242 396.217 147.242C400.302 147.242 403.614 150.554 403.614 154.639V155.696" stroke="#A5C1E9" stroke-width="1.5" stroke-linecap="round" stroke-linejoin="round"/>
<path d="M396.215 147.242C398.549 147.242 400.442 145.35 400.442 143.016C400.442 140.681 398.549 138.789 396.215 138.789C393.881 138.789 391.988 140.681 391.988 143.016C391.988 145.35 393.881 147.242 396.215 147.242Z" stroke="#A5C1E9" stroke-width="1.5" stroke-linecap="round" stroke-linejoin="round"/>
</svg>
