<svg preserveAspectRatio="none" width="100%" height="100%" overflow="visible" style="display: block;" viewBox="0 0 18 18" fill="none" xmlns="http://www.w3.org/2000/svg">
<g transform="translate(1.71, 1.71) scale(0.81)">
<g id="chat-1" clip-path="url(#clip0_3127_22854)">
<path id="Vector" d="M15.9188 17.5125H15.8808L15.8429 17.5088C15.7141 17.4953 15.5878 17.4638 15.4679 17.415L12.8082 16.4723L12.7894 16.4644C12.7319 16.4395 12.6697 16.4272 12.6071 16.4283C12.5477 16.4281 12.4888 16.4388 12.4332 16.4597C12.3699 16.4836 11.7877 16.7025 11.176 16.8703C10.8446 16.9613 9.69098 17.258 8.76518 17.258C6.39888 17.258 4.18642 16.3486 2.53595 14.6972C1.73014 13.8962 1.09111 12.9434 0.655829 11.8939C0.220549 10.8444 -0.0023513 9.719 1.87024e-05 8.5828C0.000588702 7.99004 0.0645484 7.39903 0.190798 6.81985C0.602358 4.91719 1.69361 3.18516 3.26299 1.94485C4.87302 0.682556 6.86038 -0.00235392 8.90628 6.07851e-06C11.3536 6.07851e-06 13.6341 0.937506 15.3282 2.63344C16.9294 4.23985 17.8069 6.35204 17.7999 8.5805C17.7999 10.2372 17.3048 11.8562 16.3782 13.2295L16.3524 13.2656C16.335 13.2886 16.3186 13.3125 16.3032 13.3383C16.2811 13.3767 16.2657 13.4081 16.2563 13.432L16.9936 16.0533C17.0203 16.1434 17.0373 16.2361 17.0443 16.3298V16.3875C17.0443 16.5353 17.0151 16.6816 16.9586 16.8181C16.902 16.9547 16.8191 17.0787 16.7146 17.1832C16.6101 17.2876 16.486 17.3705 16.3495 17.427C16.2129 17.4835 16.0666 17.5126 15.9188 17.5125ZM13.3454 15.0727L15.3577 15.7856L14.7788 13.7288C14.685 13.3884 14.7614 13.0017 15.0085 12.5784L15.0132 12.5709C15.0532 12.5037 15.0967 12.4386 15.1435 12.3759C15.8964 11.2525 16.2984 9.9306 16.2985 8.5781C16.3046 6.75001 15.5818 5.01563 14.2641 3.69282C12.855 2.2786 10.9547 1.50001 8.90628 1.50001C5.41218 1.50001 2.36345 3.87141 1.65658 7.13813C1.55305 7.6129 1.50056 8.09737 1.50002 8.5833C1.50002 12.54 4.75924 15.7594 8.76568 15.7594C9.35298 15.7594 10.2188 15.5794 10.7813 15.4252C11.3353 15.2733 11.8814 15.0666 11.9063 15.0581C12.3719 14.882 12.8867 14.8872 13.3486 15.0727H13.3454Z" fill="var(--fill-0, #97A0EB)"/>
</g>
</g>
<defs>
<clipPath id="clip0_3127_22854">
<rect width="18" height="18" fill="white"/>
</clipPath>
</defs>
</svg>
