<svg preserveAspectRatio="none" width="100%" height="100%" overflow="visible" style="display: block;" viewBox="0 0 10 10" fill="none" xmlns="http://www.w3.org/2000/svg">
<g transform="translate(0.95, 0.95) scale(0.81)">
<g id="chat-2" clip-path="url(#clip0_3127_22851)">
<path id="Vector" d="M1.40244 9.28043C1.2101 9.28021 1.0235 9.21488 0.872987 9.09511L0.86209 9.08633C0.746522 8.98943 0.65905 8.86328 0.608785 8.72108C0.55852 8.57888 0.547285 8.42581 0.576272 8.27776C0.676817 7.75531 0.88846 6.65251 0.967915 6.24436V6.24218C0.38194 5.36926 0.0486772 4.35128 0.00493714 3.30083C-0.0387953 2.25031 0.20869 1.20818 0.720062 0.289584C0.792602 0.159009 0.914027 0.0626344 1.05762 0.0216094C1.20122 -0.0193406 1.35523 -0.00164084 1.48576 0.0708841C1.6163 0.143409 1.71267 0.264834 1.75368 0.408459C1.79469 0.552009 1.77698 0.706059 1.70444 0.836559C1.29136 1.57381 1.09131 2.41126 1.12664 3.25561C1.16196 4.09988 1.43126 4.91776 1.90448 5.61781L1.90658 5.62103C2.03631 5.81686 2.16041 6.05416 2.10029 6.33151C2.08588 6.40186 1.92451 7.23646 1.78037 7.98946L3.28119 7.40198C3.55123 7.29496 3.85256 7.29848 4.12002 7.41188C4.76162 7.66073 5.42748 7.79228 6.04658 7.79228H6.05186C6.93885 7.79108 7.80983 7.55581 8.57678 7.11023C8.64083 7.07326 8.71148 7.04933 8.78475 7.03966C8.85803 7.03006 8.93243 7.03493 9.00383 7.05413C9.07523 7.07326 9.14213 7.10626 9.2007 7.15126C9.25935 7.19626 9.30855 7.25243 9.34545 7.31641C9.38243 7.38046 9.40635 7.45111 9.41603 7.52438C9.42563 7.59766 9.42075 7.67206 9.40155 7.74346C9.38243 7.81486 9.34943 7.88176 9.30443 7.94033C9.25943 7.99898 9.20333 8.04818 9.13928 8.08508C8.20013 8.62928 7.13408 8.91608 6.04869 8.91653H6.04201C5.28263 8.91653 4.47263 8.75731 3.6999 8.45633L3.68444 8.45003L1.7192 9.21781C1.61966 9.25943 1.5128 9.28073 1.4049 9.28043H1.40244ZM1.68123 8.48873C1.68123 8.48873 1.68123 8.48873 1.68123 8.49151C1.68123 8.49436 1.68123 8.48873 1.68123 8.48873ZM0.9985 6.08896C0.9985 6.09278 0.9985 6.09668 0.99604 6.10051C0.99709 6.09526 0.997795 6.09136 0.9985 6.08896Z" fill="var(--fill-0, #97A0EB)"/>
</g>
</g>
<defs>
<clipPath id="clip0_3127_22851">
<rect width="10" height="10" fill="white"/>
</clipPath>
</defs>
</svg>
