<svg width="583" height="383" viewBox="0 0 583 383" fill="none" xmlns="http://www.w3.org/2000/svg">
<defs>
<filter id="blobBlurLargeCircle" x="-50%" y="-50%" width="200%" height="200%">
<feGaussianBlur in="SourceGraphic" stdDeviation="150"/>
</filter>
<radialGradient id="paint0_radial_3430_82693" cx="0" cy="0" r="1" gradientUnits="userSpaceOnUse" gradientTransform="translate(420.5 189) rotate(-176.344) scale(650.824)">
<stop/>
<stop offset="0.211538" stop-opacity="0.35"/>
<stop offset="0.460677" stop-opacity="0"/>
</radialGradient>
<clipPath id="clip0_3430_82693">
<rect width="583" height="383" fill="white"/>
</clipPath>
<clipPath id="clip1_3430_82693">
<rect width="86" height="87" fill="white" transform="translate(405.586 95.4884)"/>
</clipPath>
</defs>
<g clip-path="url(#clip0_3430_82693)">
<mask id="mask0_3430_82693" style="mask-type:alpha" maskUnits="userSpaceOnUse" x="-131" y="-13" width="733" height="556">
<g filter="url(#blobBlurLargeCircle)">
<circle cx="448.258" cy="140.453" r="153" transform="rotate(12.5246 448.258 140.453)" fill="black"/>
</g>
<path d="M17.1326 542.188C-57.8733 462.026 -109.03 362.531 -130.587 254.887L386.895 151.256C389.172 162.628 394.576 173.138 402.499 181.606L17.1326 542.188Z" fill="url(#paint0_radial_3430_82693)"/>
<circle cx="448.477" cy="139.476" r="64" transform="rotate(12.5246 448.477 139.476)" fill="black"/>
</mask>
<g mask="url(#mask0_3430_82693)">
<circle cx="448.1" cy="138.88" r="62.5" transform="rotate(12.5246 448.1 138.88)" fill="#B8A5E9" fill-opacity="0.15"/>
<path d="M18.4082 538.066C-55.3423 458.679 -105.659 360.414 -126.959 254.171L386.827 151.164C389.096 162.484 394.458 172.954 402.315 181.412L18.4082 538.066Z" fill="#B8A5E9" fill-opacity="0.15"/>
<path d="M-5.54803 -60.4305C4.88184 -84.1697 17.159 -107.054 31.1704 -128.871L395.491 105.095C393.723 107.848 392.174 110.736 390.858 113.731L-5.54803 -60.4305Z" fill="#B8A5E9" fill-opacity="0.15"/>
<g clip-path="url(#clip1_3430_82693)">
<path d="M423.508 167.988L423.508 164.363C423.508 150.349 434.738 138.988 448.591 138.988C462.444 138.988 473.674 150.349 473.674 164.363L473.674 167.988" stroke="#B8A5E9" stroke-width="2.1" stroke-linecap="round" stroke-linejoin="round"/>
<path d="M448.583 138.988C456.499 138.988 462.917 132.496 462.917 124.488C462.917 116.48 456.499 109.988 448.583 109.988C440.667 109.988 434.25 116.48 434.25 124.488C434.25 132.496 440.667 138.988 448.583 138.988Z" stroke="#B8A5E9" stroke-width="2.1" stroke-linecap="round" stroke-linejoin="round"/>
<path d="M470 163.5C470 160.677 469.444 157.881 468.363 155.272C467.283 152.664 465.699 150.294 463.703 148.297C461.706 146.301 459.336 144.717 456.728 143.637C454.119 142.556 451.323 142 448.5 142C445.677 142 442.881 142.556 440.272 143.637C437.664 144.717 435.294 146.301 433.297 148.297C431.301 150.294 429.717 152.664 428.637 155.272C427.556 157.881 427 160.677 427 163.5L448.5 163.5H470Z" fill="#B8A5E9" fill-opacity="0.2"/>
<circle cx="448.5" cy="124.5" r="11.5" fill="#B8A5E9" fill-opacity="0.2"/>
<path d="M427 163.5H448.5H470V168H427V163.5Z" fill="#B8A5E9" fill-opacity="0.2"/>
</g>
<path d="M493.311 -64.6584C606.8 -39.4473 678.364 72.9917 653.153 186.481C627.942 299.97 515.503 371.534 402.014 346.323C358.66 336.692 321.425 314.331 293.365 284.046L294.094 283.362C322.021 313.505 359.081 335.761 402.23 345.347C515.181 370.438 627.086 299.214 652.177 186.264C677.268 73.314 606.044 -38.5908 493.094 -63.6822C405.688 -83.099 318.907 -44.839 272.499 25.8017L271.657 25.2626C318.286 -45.7214 405.484 -84.1688 493.311 -64.6584ZM479.492 -2.45308C558.627 15.1262 608.527 93.5284 590.948 172.662C573.369 251.797 494.966 301.697 415.832 284.118C385.497 277.379 359.458 261.701 339.869 240.471L340.6 239.786C359.66 260.444 384.867 275.811 414.213 282.721L416.049 283.142C494.03 300.465 571.295 251.811 589.551 174.282L589.972 172.446C607.431 93.8507 557.871 15.9826 479.276 -1.47688C418.72 -14.9291 358.596 11.4053 326.201 60.1506L325.359 59.6125C357.974 10.5234 418.515 -15.9989 479.492 -2.45308ZM470.324 38.8191C525.586 51.0953 560.433 105.846 548.157 161.108C535.881 216.37 481.13 251.217 425.868 238.941C404.973 234.299 386.998 223.583 373.384 209.065L374.114 208.382C387.595 222.758 405.394 233.368 426.085 237.965C480.808 250.121 535.024 215.614 547.181 160.891C559.337 106.168 524.83 51.9518 470.107 39.7953C427.56 30.3438 385.321 49.1011 362.916 83.6354L362.074 83.0961C384.698 48.2183 427.356 29.274 470.324 38.8191ZM256.429 55.17C250.761 67.8595 246.279 81.3053 243.148 95.4005C236.765 124.131 236.617 152.794 241.8 179.978L240.818 180.174C235.608 152.858 235.758 124.055 242.172 95.1836C245.317 81.0252 249.819 67.5191 255.512 54.7723L256.429 55.17ZM464.85 63.4597C506.504 72.7128 532.769 113.981 523.516 155.634C514.263 197.288 472.995 223.553 431.342 214.3C415.604 210.804 402.063 202.737 391.804 191.806L392.534 191.122C402.66 201.911 416.025 209.873 431.559 213.324C472.673 222.457 513.407 196.532 522.54 155.417C531.602 114.624 506.151 74.2052 465.594 64.6553L464.633 64.4359C432.722 57.347 401.04 71.3785 384.185 97.2394L383.344 96.7003C400.419 70.4962 432.518 56.2772 464.85 63.4597ZM461.867 76.8911C496.102 84.4963 517.69 118.415 510.085 152.65C502.48 186.886 468.561 208.474 434.326 200.869C421.398 197.997 410.274 191.373 401.844 182.397L402.575 181.713C410.872 190.547 421.819 197.066 434.542 199.893C468.239 207.378 501.623 186.13 509.109 152.434C516.594 118.737 495.346 85.3527 461.65 77.8673C435.536 72.0663 409.61 83.5221 395.78 104.655L394.937 104.117C408.987 82.6398 435.331 70.9964 461.867 76.8911ZM314.916 80.5191C310.821 89.5561 307.59 99.1488 305.353 109.219C300.955 129.019 300.811 148.772 304.312 167.524L303.331 167.719C299.803 148.834 299.947 128.942 304.377 109.002C306.628 98.8688 309.878 89.2155 313.998 80.1211L314.916 80.5191ZM355.185 97.9718C352.563 103.945 350.48 110.259 349.011 116.869C345.851 131.095 345.845 145.288 348.528 158.716L347.548 158.91C344.839 145.35 344.844 131.019 348.035 116.652C349.518 109.979 351.62 103.605 354.267 97.5747L355.185 97.9718ZM378.348 108.011C376.35 112.538 374.766 117.327 373.652 122.343L373.444 123.306C371.279 133.671 371.333 143.997 373.288 153.782L372.308 153.978C370.266 143.757 370.27 132.955 372.676 122.126C373.804 117.048 375.409 112.199 377.431 107.614L378.348 108.011ZM390.975 113.484C389.318 117.223 388.004 121.18 387.083 125.326C385.137 134.086 385.136 142.825 386.787 151.093L385.808 151.289C384.129 142.888 384.13 134.01 386.107 125.109C387.042 120.9 388.375 116.882 390.058 113.086L390.975 113.484Z" fill="#B8A5E9"/>
<path d="M-69.5977 242.069L386.596 150.677" stroke="#B8A5E9"/>
<path d="M37.3203 -125.46L395.762 104.718" stroke="#B8A5E9"/>
<line x1="23.8057" y1="-46.5334" x2="390.755" y2="113.86" stroke="#B8A5E9"/>
<path d="M158.297 408.708L402.658 182.053" stroke="#B8A5E9"/>
</g>
<mask id="mask1_3430_82693" style="mask-type:alpha" maskUnits="userSpaceOnUse" x="48" y="146" width="148" height="132">
<rect x="48" y="146" width="148" height="132" fill="black" fill-opacity="0.5"/>
</mask>
<g mask="url(#mask1_3430_82693)">
<path d="M145.499 208.342V206.658C145.499 200.144 150.719 194.863 157.158 194.863C163.597 194.863 168.817 200.144 168.817 206.658V208.342M113.957 208.342V206.658C113.957 200.144 119.177 194.863 125.616 194.863C132.055 194.863 137.275 200.144 137.275 206.658V208.342M82.4154 208.342V206.658C82.4154 200.144 87.6353 194.863 94.0744 194.863C100.513 194.863 105.733 200.144 105.733 206.658V208.342M60.3359 156.851H190.547V232.875H60.3359V156.851ZM157.155 194.863C160.834 194.863 163.817 191.845 163.817 188.123C163.817 184.401 160.834 181.383 157.155 181.383C153.475 181.383 150.493 184.401 150.493 188.123C150.493 191.845 153.475 194.863 157.155 194.863ZM125.613 194.863C129.292 194.863 132.275 191.845 132.275 188.123C132.275 184.401 129.292 181.383 125.613 181.383C121.933 181.383 118.951 184.401 118.951 188.123C118.951 191.845 121.933 194.863 125.613 194.863ZM94.071 194.863C97.7504 194.863 100.733 191.845 100.733 188.123C100.733 184.401 97.7504 181.383 94.071 181.383C90.3915 181.383 87.4087 184.401 87.4087 188.123C87.4087 191.845 90.3915 194.863 94.071 194.863Z" stroke="#B8A5E9" stroke-width="1.2" stroke-linecap="round" stroke-linejoin="round"/>
<path d="M60.335 222.861H39V286.08H147.992V232.875H148.992V286.58C148.992 286.856 148.768 287.08 148.492 287.08H38.5C38.2239 287.08 38 286.856 38 286.58V222.361C38.0001 222.085 38.224 221.861 38.5 221.861H60.335V222.861ZM66.998 242.584C70.3876 242.584 73.1259 245.362 73.126 248.777C73.126 251.212 71.7329 253.322 69.7051 254.333C74.1116 255.536 77.3495 259.605 77.3496 264.434V265.856C77.3496 266.133 77.1257 266.356 76.8496 266.356C76.5735 266.356 76.3496 266.133 76.3496 265.856V264.434C76.3495 259.202 72.1585 254.971 67.001 254.971C61.8435 254.971 57.6524 259.202 57.6523 264.434V265.856C57.6523 266.133 57.4285 266.356 57.1523 266.356C56.8763 266.356 56.6523 266.133 56.6523 265.856V264.434C56.6524 259.607 59.888 255.538 64.292 254.334C62.2637 253.323 60.8701 251.213 60.8701 248.777C60.8702 245.363 63.6085 242.584 66.998 242.584ZM93.6416 242.584C97.031 242.584 99.7685 245.363 99.7686 248.777C99.7686 251.212 98.3757 253.322 96.3477 254.333C100.754 255.536 103.992 259.605 103.992 264.434V265.856C103.992 266.133 103.768 266.356 103.492 266.356C103.216 266.356 102.992 266.132 102.992 265.856V264.434C102.992 259.202 98.8019 254.971 93.6445 254.971C88.487 254.971 84.296 259.202 84.2959 264.434V265.856C84.2959 266.132 84.0719 266.356 83.7959 266.356C83.5198 266.356 83.2959 266.133 83.2959 265.856V264.434C83.296 259.607 86.5313 255.538 90.9355 254.334C88.9071 253.323 87.5137 251.213 87.5137 248.777C87.5137 245.363 90.252 242.584 93.6416 242.584ZM120.284 242.584C123.674 242.584 126.412 245.362 126.412 248.777C126.412 251.212 125.019 253.322 122.991 254.333C127.398 255.536 130.636 259.605 130.636 264.434V265.856C130.636 266.133 130.412 266.356 130.136 266.356C129.86 266.356 129.636 266.133 129.636 265.856V264.434C129.636 259.202 125.445 254.971 120.287 254.971C115.13 254.971 110.939 259.202 110.938 264.434V265.856C110.938 266.133 110.715 266.356 110.438 266.356C110.162 266.356 109.938 266.132 109.938 265.856V264.434C109.939 259.607 113.174 255.538 117.578 254.334C115.55 253.323 114.156 251.213 114.156 248.777C114.156 245.363 116.895 242.584 120.284 242.584ZM66.998 243.584C64.1717 243.584 61.8702 245.904 61.8701 248.777C61.8701 251.561 64.0299 253.825 66.7344 253.964L66.998 253.971L67.2617 253.964C69.9663 253.825 72.126 251.561 72.126 248.777C72.1259 245.904 69.8245 243.584 66.998 243.584ZM93.6416 243.584C90.8152 243.584 88.5137 245.904 88.5137 248.777C88.5137 251.561 90.6732 253.825 93.3779 253.964L93.6416 253.971L93.9043 253.964C96.6091 253.825 98.7686 251.561 98.7686 248.777C98.7685 245.904 96.4679 243.584 93.6416 243.584ZM120.284 243.584C117.458 243.584 115.156 245.904 115.156 248.777C115.156 251.561 117.316 253.825 120.021 253.964L120.284 253.971L120.548 253.964C123.252 253.825 125.412 251.561 125.412 248.777C125.412 245.904 123.111 243.584 120.284 243.584ZM200.253 124C200.529 124 200.753 124.224 200.753 124.5V172.265C200.753 172.541 200.529 172.765 200.253 172.765H190.547V171.765H199.753V125H138.479V156.851H137.479V124.5C137.479 124.224 137.703 124 137.979 124H200.253ZM159.065 139.139C161.67 139.139 163.772 141.274 163.772 143.896C163.772 145.652 162.827 147.189 161.42 148.013C164.616 149.024 166.931 152.042 166.931 155.6V156.663C166.931 156.729 166.917 156.793 166.894 156.851H165.968C165.944 156.793 165.931 156.729 165.931 156.663V155.6C165.931 151.757 162.853 148.652 159.068 148.651C155.284 148.651 152.205 151.757 152.205 155.6V156.663C152.205 156.729 152.191 156.793 152.168 156.851H151.242C151.219 156.793 151.205 156.729 151.205 156.663V155.6C151.205 152.043 153.518 149.026 156.712 148.014C155.304 147.19 154.359 145.653 154.358 143.896C154.358 141.275 156.461 139.139 159.065 139.139ZM178.983 139.139C181.588 139.139 183.69 141.274 183.69 143.896C183.69 145.653 182.744 147.189 181.337 148.013C184.533 149.024 186.848 152.042 186.848 155.6V156.663C186.848 156.729 186.834 156.793 186.811 156.851H185.885C185.861 156.793 185.848 156.729 185.848 156.663V155.6C185.848 151.757 182.77 148.652 178.985 148.651C175.201 148.651 172.122 151.757 172.122 155.6V156.663C172.122 156.729 172.108 156.793 172.085 156.851H171.159C171.136 156.793 171.122 156.729 171.122 156.663V155.6C171.122 152.043 173.435 149.026 176.629 148.014C175.221 147.19 174.276 145.653 174.275 143.896C174.275 141.274 176.378 139.139 178.983 139.139ZM159.065 140.139C157.024 140.139 155.358 141.816 155.358 143.896C155.359 145.91 156.922 147.546 158.876 147.646L159.065 147.651L159.256 147.646C161.21 147.546 162.772 145.91 162.772 143.896C162.772 141.816 161.107 140.139 159.065 140.139ZM178.983 140.139C176.942 140.139 175.275 141.816 175.275 143.896C175.276 145.91 176.839 147.546 178.793 147.646L178.983 147.651L179.173 147.646C181.127 147.546 182.69 145.91 182.69 143.896C182.69 141.816 181.025 140.139 178.983 140.139Z" fill="#B8A5E9"/>
</g>
</g>
</svg>
