<svg width="1440" height="737" viewBox="0 0 1440 737" fill="none" xmlns="http://www.w3.org/2000/svg" xmlns:xlink="http://www.w3.org/1999/xlink">
<defs>
<filter id="blobBlur6" x="-50%" y="-50%" width="200%" height="200%">
<feGaussianBlur in="SourceGraphic" stdDeviation="50"/>
</filter>
</defs>
<g clip-path="url(#clip0_3411_15896)">
<mask id="mask0_3411_15896" style="mask-type:alpha" maskUnits="userSpaceOnUse" x="-145" y="-443" width="1770" height="1659">
<g filter="url(#blobBlur6)">
<path d="M562.388 642.946C671.204 584.604 872.189 688.018 959.079 747.019C1020.39 905.233 863.191 1034.39 764.884 1100.28C666.577 1166.18 26.879 1315.5 317.9 1114.27C608.92 913.037 426.367 715.874 562.388 642.946Z" fill="black" fill-opacity="0.5"/>
<path d="M71.7794 743.787C87.8639 809.104 156.213 847.965 188.377 859.231C149.506 885.419 -68.816 816.818 -113.184 811.766C-157.553 806.713 -152.228 757.337 -112.303 668.988C-72.3787 580.638 51.6739 662.141 71.7794 743.787Z" fill="black" fill-opacity="0.3"/>
<path d="M1451.4 264.393C1456.69 -24.4126 1144.69 -33.0617 988.031 -1.28557C909.589 -33.6813 997.049 -222.453 1033.81 -242.47C1070.58 -262.488 1102.56 -278.611 1467.48 3.12044C1832.4 284.852 1444.79 625.4 1451.4 264.393Z" fill="black" fill-opacity="0.4"/>
<path d="M541.366 62.9876C476.81 -73.0222 268.559 -115.417 172.503 -119.613C52.5501 -375.281 284.483 -352.956 421.57 -432.716C558.657 -512.475 692.164 -100.301 734.491 54.912C776.818 210.125 622.061 233 541.366 62.9876Z" fill="black" fill-opacity="0.4"/>
</g>
</mask>
<g mask="url(#mask0_3411_15896)">
<rect width="1440" height="737" fill="url(#pattern0_3411_15896)"/>
</g>
</g>
<defs>
<clipPath id="clip0_3411_15896">
<rect width="1440" height="737" fill="white"/>
</clipPath>
<pattern id="pattern0_3411_15896" patternUnits="userSpaceOnUse" patternTransform="matrix(200 0 0 200 0 0)" preserveAspectRatio="none" viewBox="0 0 200 200" width="1" height="1">
<g id="pattern0_3411_15896_inner">
<pattern id="pattern1_3411_15896" patternUnits="userSpaceOnUse" patternTransform="matrix(24.9942 0 0 24.9942 0 0)" preserveAspectRatio="none" viewBox="0 0 23.1 23.1" width="1" height="1">
<g id="pattern1_3411_15896_inner">
<circle cx="1.05" cy="1.05" r="1.05" fill="#A5AEE9"/>
</g>
</pattern><rect width="200" height="200" fill="url(#pattern1_3411_15896)"/>
</g>
</pattern>
</defs>
</svg>
