<svg width="1440" height="659" viewBox="0 0 1440 659" fill="none" xmlns="http://www.w3.org/2000/svg">
<g opacity="0.3">
<circle cx="818" cy="297" r="19" fill="#A5AEE9" fill-opacity="0.15"/>
<circle cx="389" cy="618" r="19" fill="#A5AEE9" fill-opacity="0.15"/>
<path d="M893.5 251L922.512 301.25H864.488L893.5 251Z" fill="#A5AEE9" fill-opacity="0.15"/>
<path d="M776.219 197.058L803.697 206.505L809.253 235.025L787.333 254.098L759.855 244.65L754.299 216.13L776.219 197.058Z" fill="#A5AEE9" fill-opacity="0.15"/>
<rect x="844" y="210" width="65" height="24" fill="#A5AEE9" fill-opacity="0.15"/>
<rect x="474" y="554" width="72" height="31" fill="#A5AEE9" fill-opacity="0.15"/>
<rect x="263" y="485" width="22" height="28" fill="#A5AEE9" fill-opacity="0.15"/>
<rect x="674" y="599" width="57" height="45" fill="#A5AEE9" fill-opacity="0.15"/>
<rect x="597" y="480" width="32" height="32" fill="#A5AEE9" fill-opacity="0.15"/>
<rect x="91" y="344" width="32" height="32" fill="#A5AEE9" fill-opacity="0.15"/>
<rect x="480" y="334" width="28" height="28" fill="#A5AEE9" fill-opacity="0.15"/>
<rect x="731" y="365" width="19" height="23" fill="#A5AEE9" fill-opacity="0.15"/>
<rect x="377" y="505" width="19" height="23" fill="#A5AEE9" fill-opacity="0.15"/>
<rect x="984" y="439" width="31" height="35" fill="#A5AEE9" fill-opacity="0.15"/>
<rect x="1071" y="329" width="26" height="32" fill="#A5AEE9" fill-opacity="0.15"/>
<rect x="463" y="168" width="23" height="23" fill="#A5AEE9" fill-opacity="0.15"/>
<circle cx="582" cy="338" r="18" fill="#A5AEE9" fill-opacity="0.15"/>
<ellipse cx="309" cy="331.5" rx="14" ry="13.5" fill="#A5AEE9" fill-opacity="0.15"/>
<circle cx="206" cy="475" r="24" fill="#A5AEE9" fill-opacity="0.15"/>
<path d="M528.888 268.044L554.052 282.573V311.629L528.888 326.157L503.725 311.629V282.573L528.888 268.044Z" fill="#A5AEE9" fill-opacity="0.15"/>
<path d="M167 405L181.722 413.5V430.5L167 439L152.278 430.5V413.5L167 405Z" fill="#A5AEE9" fill-opacity="0.15"/>
<rect x="586.688" y="249.525" width="53.456" height="31.2913" fill="#A5AEE9" fill-opacity="0.15"/>
<ellipse cx="1044.91" cy="385.905" rx="24.9053" ry="24.9053" fill="#A5AEE9" fill-opacity="0.15"/>
<path d="M1039.61 265L1066.99 312.416H1012.24L1039.61 265Z" fill="#A5AEE9" fill-opacity="0.15"/>
<path d="M1227.61 323L1254.99 370.416H1200.24L1227.61 323Z" fill="#A5AEE9" fill-opacity="0.15"/>
<path d="M971.439 317.855L996.602 332.383V361.439L971.439 375.967L946.276 361.439V332.383L971.439 317.855Z" fill="#A5AEE9" fill-opacity="0.15"/>
<path d="M837.056 340L862.22 354.528V383.584L837.056 398.112L811.893 383.584V354.528L837.056 340Z" fill="#A5AEE9" fill-opacity="0.15"/>
<rect x="1090" y="388" width="53.456" height="31.2913" fill="#A5AEE9" fill-opacity="0.15"/>
<rect x="1111" y="272" width="63" height="37" fill="#A5AEE9" fill-opacity="0.15"/>
<circle cx="816" cy="433" r="17" fill="#A5AEE9" fill-opacity="0.15"/>
<circle cx="1213" cy="208" r="17" fill="#A5AEE9" fill-opacity="0.15"/>
<circle cx="1003" cy="80" r="17" fill="#A5AEE9" fill-opacity="0.15"/>
<path d="M880.611 439L907.986 486.416H853.235L880.611 439Z" fill="#A5AEE9" fill-opacity="0.15"/>
<path d="M1074 479L1096.52 492V518L1074 531L1051.48 518V492L1074 479Z" fill="#A5AEE9" fill-opacity="0.15"/>
<path d="M1345 342L1367.52 355V381L1345 394L1322.48 381V355L1345 342Z" fill="#A5AEE9" fill-opacity="0.15"/>
<path d="M1321.5 216L1337.52 225.25V243.75L1321.5 253L1305.48 243.75V225.25L1321.5 216Z" fill="#A5AEE9" fill-opacity="0.15"/>
<path d="M913.966 118.612L939.13 133.14V162.196L913.966 176.725L888.803 162.196V133.14L913.966 118.612Z" fill="#A5AEE9" fill-opacity="0.15"/>
<path d="M1134 134L1163.44 151V185L1134 202L1104.56 185V151L1134 134Z" fill="#A5AEE9" fill-opacity="0.15"/>
<rect x="887" y="394" width="43" height="25" fill="#A5AEE9" fill-opacity="0.15"/>
<rect x="1182" y="467" width="43" height="25" fill="#A5AEE9" fill-opacity="0.15"/>
<circle cx="677" cy="455" r="30" fill="#A5AEE9" fill-opacity="0.15"/>
<circle cx="1164" cy="589" r="30" fill="#A5AEE9" fill-opacity="0.15"/>
<circle cx="546" cy="210" r="30" fill="#A5AEE9" fill-opacity="0.15"/>
<circle cx="131.5" cy="258.5" r="24.5" fill="#A5AEE9" fill-opacity="0.15"/>
<path d="M757.505 410.452L784.881 457.868H730.13L757.505 410.452Z" fill="#A5AEE9" fill-opacity="0.15"/>
<path d="M769.5 490L802.842 547.75H736.158L769.5 490Z" fill="#A5AEE9" fill-opacity="0.15"/>
<path d="M170 324L188.187 355.5H151.813L170 324Z" fill="#A5AEE9" fill-opacity="0.15"/>
<path d="M328.5 505L354.048 549.25H302.952L328.5 505Z" fill="#A5AEE9" fill-opacity="0.15"/>
<path d="M157 599L127.555 548H186.445L157 599Z" fill="#A5AEE9" fill-opacity="0.15"/>
<path d="M1272.5 134L1245.22 86.75H1299.78L1272.5 134Z" fill="#A5AEE9" fill-opacity="0.15"/>
<path d="M1344.5 508L1312.02 451.75H1376.98L1344.5 508Z" fill="#A5AEE9" fill-opacity="0.15"/>
<path d="M964 599L946.679 569H981.321L964 599Z" fill="#A5AEE9" fill-opacity="0.15"/>
<path d="M625 353L644.053 386.75H605.947L625 353Z" fill="#A5AEE9" fill-opacity="0.15"/>
<path d="M356 273L375.053 306.75H336.947L356 273Z" fill="#A5AEE9" fill-opacity="0.15"/>
<path d="M588.279 393.848L613.442 408.376V437.432L588.279 451.961L563.115 437.432V408.376L588.279 393.848Z" fill="#A5AEE9" fill-opacity="0.15"/>
<rect x="665" y="345" width="38" height="22" fill="#A5AEE9" fill-opacity="0.15"/>
<rect x="562" y="119" width="45" height="26" fill="#A5AEE9" fill-opacity="0.15"/>
<circle cx="454.5" cy="495.5" r="20.5" fill="#A5AEE9" fill-opacity="0.15"/>
<path d="M532.611 455L559.986 502.416H505.235L532.611 455Z" fill="#A5AEE9" fill-opacity="0.15"/>
<path d="M399.252 423.224L424.415 437.752V466.808L399.252 481.336L374.088 466.808V437.752L399.252 423.224Z" fill="#A5AEE9" fill-opacity="0.15"/>
<rect x="459" y="409" width="53.456" height="31.2913" fill="#A5AEE9" fill-opacity="0.15"/>
<rect x="206" y="247" width="43" height="41" fill="#A5AEE9" fill-opacity="0.15"/>
<circle cx="358" cy="234" r="20" fill="#A5AEE9" fill-opacity="0.15"/>
<path d="M435.017 191.413L462.392 238.829H407.641L435.017 191.413Z" fill="#A5AEE9" fill-opacity="0.15"/>
<path d="M702.5 151L720.254 181.75H684.746L702.5 151Z" fill="#A5AEE9" fill-opacity="0.15"/>
<path d="M187.5 113L205.254 143.75H169.746L187.5 113Z" fill="#A5AEE9" fill-opacity="0.15"/>
<path d="M406 80L430.249 122H381.751L406 80Z" fill="#A5AEE9" fill-opacity="0.15"/>
<path d="M855.612 568.221L828.236 520.805H882.988L855.612 568.221Z" fill="#A5AEE9" fill-opacity="0.15"/>
<path d="M744 146L715.421 96.5H772.579L744 146Z" fill="#A5AEE9" fill-opacity="0.15"/>
<path d="M242 415L213.421 365.5H270.579L242 415Z" fill="#A5AEE9" fill-opacity="0.15"/>
<path d="M100 469L80.0814 434.5H119.919L100 469Z" fill="#A5AEE9" fill-opacity="0.15"/>
<path d="M293 154L318.981 169V199L293 214L267.019 199V169L293 154Z" fill="#A5AEE9" fill-opacity="0.15"/>
<path d="M273.5 570L286.923 577.75V593.25L273.5 601L260.077 593.25V577.75L273.5 570Z" fill="#A5AEE9" fill-opacity="0.15"/>
<rect x="492" y="10" width="41" height="43" fill="#A5AEE9" fill-opacity="0.15"/>
<rect x="258" y="53" width="41" height="18" fill="#A5AEE9" fill-opacity="0.15"/>
<path d="M631 53L646.588 62V80L631 89L615.412 80V62L631 53Z" fill="#A5AEE9" fill-opacity="0.15"/>
<rect x="293.57" y="389.216" width="35.9175" height="19.9181" fill="#A5AEE9" fill-opacity="0.15"/>
</g>
</svg>
