<svg preserveAspectRatio="none" width="100%" height="100%" overflow="visible" style="display: block;" viewBox="0 0 40 36" fill="none" xmlns="http://www.w3.org/2000/svg">
<path id="Vector" d="M14.232 21.5118L12 3.90979L9.768 21.5098H2C0.896 21.5098 0 20.6358 0 19.5578C0.00633017 19.0333 0.220478 18.5328 0.595442 18.1661C0.970406 17.7994 1.47555 17.5964 2 17.6018H6.232L8.032 3.42979C8.3 1.28579 10.3 -0.234212 12.49 0.0297882C14.31 0.249788 15.742 1.64979 15.968 3.42979L17.766 17.6018H21.714L24 32.0938L26.284 17.6038H38C39.104 17.6038 40 18.4798 40 19.5598C40 20.6398 39.104 21.5138 38 21.5138H29.716L27.954 32.6878C27.8162 33.5172 27.4178 34.2811 26.8165 34.8687C26.2152 35.4563 25.4423 35.8371 24.61 35.9558C22.426 36.2858 20.384 34.8218 20.046 32.6878L18.286 21.5138H14.23L14.232 21.5118Z" fill="var(--fill-0, #C1C7CD)"/>
</svg>
