<svg preserveAspectRatio="none" width="100%" height="100%" overflow="visible" style="display: block;" viewBox="0 0 40 32" fill="none" xmlns="http://www.w3.org/2000/svg">
<path id="Vector" d="M30 11.994V27.994H26V11.994H14V27.994H10V11.994C8.4087 11.994 6.88258 12.6262 5.75736 13.7514C4.63214 14.8766 4 16.4027 4 17.994V21.994C4 23.5853 4.63214 25.1114 5.75736 26.2367C6.88258 27.3619 8.4087 27.994 10 27.994H30C31.5913 27.994 33.1174 27.3619 34.2426 26.2367C35.3679 25.1114 36 23.5853 36 21.994V17.994C36 16.4027 35.3679 14.8766 34.2426 13.7514C33.1174 12.6262 31.5913 11.994 30 11.994V11.994ZM14.34 7.99402H25.66C25.244 6.82568 24.4767 5.81468 23.4634 5.09978C22.45 4.38487 21.2402 4.00108 20 4.00108C18.7598 4.00108 17.55 4.38487 16.5366 5.09978C15.5233 5.81468 14.756 6.82568 14.34 7.99402V7.99402ZM10.2 7.99402C10.663 5.73674 11.891 3.70848 13.6765 2.25197C15.4621 0.795461 17.6957 0 20 0C22.3043 0 24.5379 0.795461 26.3235 2.25197C28.109 3.70848 29.337 5.73674 29.8 7.99402H30C32.6522 7.99402 35.1957 9.04759 37.0711 10.923C38.9464 12.7983 40 15.3419 40 17.994V21.994C40 24.6462 38.9464 27.1897 37.0711 29.0651C35.1957 30.9405 32.6522 31.994 30 31.994H10C7.34784 31.994 4.8043 30.9405 2.92893 29.0651C1.05357 27.1897 0 24.6462 0 21.994L0 17.994C0 15.3419 1.05357 12.7983 2.92893 10.923C4.8043 9.04759 7.34784 7.99402 10 7.99402H10.2Z" fill="var(--fill-0, #C1C7CD)"/>
</svg>
