<svg preserveAspectRatio="none" width="100%" height="100%" overflow="visible" style="display: block;" viewBox="0 0 24 24" fill="none" xmlns="http://www.w3.org/2000/svg">
<g transform="translate(1.2, 1.2) scale(0.9)">
<g id="chatbubbles-outline 1">
<path id="chat-2" d="M3.36992 22.4999C3.11347 22.4996 2.86466 22.4125 2.66398 22.2528L2.64945 22.2411C2.49536 22.1119 2.37873 21.9437 2.31171 21.7541C2.24469 21.5645 2.22971 21.3604 2.26836 21.163C2.40242 20.4664 2.68461 18.996 2.79055 18.4518V18.4489C2.00925 17.285 1.5649 15.9277 1.50658 14.5271C1.44827 13.1264 1.77825 11.7369 2.46008 10.5121C2.5568 10.338 2.7187 10.2095 2.91016 10.1548C3.10162 10.1002 3.30697 10.1238 3.48101 10.2205C3.65506 10.3172 3.78356 10.4791 3.83824 10.6706C3.89292 10.862 3.8693 11.0674 3.77258 11.2414C3.22181 12.2244 2.95508 13.341 3.00218 14.4668C3.04928 15.5925 3.40835 16.683 4.0393 17.6164L4.04211 17.6207C4.21508 17.8818 4.38055 18.1982 4.30039 18.568C4.28117 18.6618 4.06601 19.7746 3.87383 20.7786L5.87492 19.9953C6.23497 19.8526 6.63675 19.8573 6.99336 20.0085C7.84883 20.3403 8.73664 20.5157 9.56211 20.5157H9.56914C10.7518 20.5141 11.9131 20.2004 12.9357 19.6063C13.0211 19.557 13.1153 19.5251 13.213 19.5122C13.3107 19.4994 13.4099 19.5059 13.5051 19.5315C13.6003 19.557 13.6895 19.601 13.7676 19.661C13.8458 19.721 13.9114 19.7959 13.9606 19.8812C14.0099 19.9666 14.0418 20.0608 14.0547 20.1585C14.0675 20.2562 14.061 20.3554 14.0354 20.4506C14.0099 20.5458 13.9659 20.635 13.9059 20.7131C13.8459 20.7913 13.7711 20.8569 13.6857 20.9061C12.4335 21.6317 11.0121 22.0141 9.56492 22.0147H9.55601C8.54351 22.0147 7.46351 21.8024 6.4332 21.4011L6.41258 21.3927L3.79226 22.4164C3.65954 22.4719 3.51706 22.5003 3.3732 22.4999H3.36992ZM3.74164 21.4443C3.74164 21.4443 3.74164 21.4443 3.74164 21.448C3.74164 21.4518 3.74164 21.4443 3.74164 21.4443ZM2.83133 18.2446C2.83133 18.2497 2.83133 18.2549 2.82805 18.26C2.82945 18.253 2.83039 18.2478 2.83133 18.2446Z" fill="var(--fill-0, #C1C7CD)"/>
<path id="chat-1" d="M20.618 19.0125H20.58L20.5421 19.0088C20.4133 18.9953 20.287 18.9638 20.1671 18.915L17.5074 17.9723L17.4886 17.9644C17.4311 17.9395 17.3689 17.9272 17.3063 17.9283C17.2469 17.9281 17.188 17.9388 17.1324 17.9597C17.0691 17.9836 16.4869 18.2025 15.8752 18.3703C15.5438 18.4613 14.3902 18.758 13.4644 18.758C11.0981 18.758 8.88564 17.8486 7.23517 16.1972C6.42936 15.3962 5.79033 14.4434 5.35505 13.3939C4.91977 12.3444 4.69687 11.219 4.69924 10.0828C4.69981 9.49004 4.76377 8.89903 4.89002 8.31985C5.30158 6.41719 6.39283 4.68516 7.96221 3.44485C9.57224 2.18256 11.5596 1.49765 13.6055 1.50001C16.0528 1.50001 18.3333 2.43751 20.0274 4.13344C21.6286 5.73985 22.5061 7.85204 22.4991 10.0805C22.4991 11.7372 22.004 13.3562 21.0774 14.7295L21.0516 14.7656C21.0342 14.7886 21.0178 14.8125 21.0024 14.8383C20.9803 14.8767 20.9649 14.9081 20.9555 14.932L21.6928 17.5533C21.7195 17.6434 21.7365 17.7361 21.7435 17.8298V17.8875C21.7435 18.0353 21.7143 18.1816 21.6578 18.3181C21.6012 18.4547 21.5183 18.5787 21.4138 18.6832C21.3093 18.7876 21.1852 18.8705 21.0487 18.927C20.9121 18.9835 20.7658 19.0126 20.618 19.0125ZM18.0446 16.5727L20.0569 17.2856L19.478 15.2288C19.3842 14.8884 19.4606 14.5017 19.7077 14.0784L19.7124 14.0709C19.7524 14.0037 19.7959 13.9386 19.8427 13.8759C20.5956 12.7525 20.9976 11.4306 20.9977 10.0781C21.0038 8.25001 20.281 6.51563 18.9633 5.19282C17.5542 3.7786 15.6539 3.00001 13.6055 3.00001C10.1114 3.00001 7.06267 5.37141 6.3558 8.63813C6.25227 9.1129 6.19978 9.59737 6.19924 10.0833C6.19924 14.04 9.45846 17.2594 13.4649 17.2594C14.0522 17.2594 14.918 17.0794 15.4805 16.9252C16.0345 16.7733 16.5806 16.5666 16.6055 16.5581C17.0711 16.382 17.5859 16.3872 18.0478 16.5727H18.0446Z" fill="var(--fill-0, #C1C7CD)"/>
</g>
</g>
</svg>
