<svg preserveAspectRatio="none" width="100%" height="100%" overflow="visible" style="display: block;" viewBox="0 0 21 21" fill="none" xmlns="http://www.w3.org/2000/svg">
<path id="Vector" fill-rule="evenodd" clip-rule="evenodd" d="M17.9405 3.05161C16.9697 2.08039 15.8165 1.31077 14.5471 0.787057C13.2777 0.263341 11.9172 -0.00412801 10.5441 4.81592e-05C4.78125 4.81592e-05 0.0899999 4.66786 0.0876562 10.4063C0.0851069 12.2335 0.566763 14.0288 1.48359 15.6094L0 21.0001L5.54297 19.553C7.07729 20.3842 8.79484 20.8192 10.5398 20.8186H10.5441C16.3064 20.8186 20.9972 16.1504 21 10.4124C21.0035 9.0439 20.7348 7.68839 20.2095 6.42471C19.6843 5.16103 18.913 4.01442 17.9405 3.05161V3.05161ZM10.5441 19.0622H10.5403C8.98471 19.0627 7.45739 18.6464 6.11719 17.8566L5.79984 17.6691L2.51062 18.5279L3.38859 15.3361L3.18187 15.008C2.31206 13.6309 1.85121 12.0351 1.85297 10.4063C1.85297 5.6377 5.75344 1.75786 10.5473 1.75786C12.847 1.75375 15.0542 2.66327 16.6833 4.28636C18.3125 5.90944 19.2302 8.11318 19.2347 10.4129C19.2328 15.1819 15.3342 19.0622 10.5441 19.0622ZM15.3108 12.5846C15.0497 12.4543 13.7639 11.8252 13.5258 11.7385C13.2877 11.6518 13.1119 11.6082 12.938 11.8688C12.7641 12.1294 12.263 12.7126 12.1106 12.8883C11.9583 13.0641 11.8059 13.0833 11.5448 12.953C11.2838 12.8227 10.4414 12.5485 9.44344 11.6625C8.66672 10.973 8.14266 10.1218 7.99031 9.86161C7.83797 9.60146 7.97391 9.46036 8.10469 9.33099C8.22234 9.21427 8.36578 9.02724 8.49656 8.87536C8.62734 8.72349 8.67094 8.61474 8.75766 8.4413C8.84438 8.26786 8.80125 8.11599 8.73609 7.98614C8.67094 7.8563 8.14828 6.57614 7.93078 6.05536C7.71844 5.54817 7.50328 5.61708 7.34297 5.60911C7.19062 5.60161 7.01484 5.59974 6.84188 5.59974C6.70965 5.60318 6.57955 5.63384 6.4597 5.68981C6.33985 5.74579 6.23283 5.82586 6.14531 5.92505C5.90578 6.18567 5.23078 6.81567 5.23078 8.09442C5.23078 9.37317 6.16828 10.6107 6.29766 10.7841C6.42703 10.9575 8.13984 13.584 10.7606 14.7104C11.2473 14.9188 11.7445 15.1015 12.2503 15.2579C12.8761 15.4557 13.4456 15.428 13.8956 15.361C14.3977 15.2865 15.4425 14.7319 15.6595 14.1244C15.8766 13.5169 15.877 12.9966 15.8119 12.8883C15.7467 12.7801 15.5723 12.7144 15.3108 12.5846Z" fill="var(--fill-0, #A5AEE9)"/>
</svg>
